# xmcd
#
# Track frame offsets: 
#        150
#        22473
#        42735
#        60583
#        82665
#        99253
#        122060
#        133598
#        152880
#        167865
#        185850
#        201185
#
# Disc length: 2890 seconds
#
# Revision: 0
# Processed by: cddbd v1.5.1PL0 Copyright (c) Steve Scherf et al.
# Submitted via: ExactAudioCopy v0.95a5
#
DISCID=aa0b480c
DTITLE=Gene Clark and Carla Olson - So Rebellious A Lover
DYEAR=1987
DGENRE=Rock
TTITLE0=The Drifter
TTITLE1=Gypsy Rider
TTITLE2=Every Angel In Heaven
TTITLE3=Del Gato
TTITLE4=Deportee (Plane Wreck At Los Gatos)
TTITLE5=Fair And Tender Ladies
TTITLE6=Almost Saturday Night
TTITLE7=I'm Your Toy (Hot Burrito #1)
TTITLE8=Are We Still Making Love
TTITLE9=Why Did You Leave Me Today
TTITLE10=Don't It Make You Want To Go Home
TTITLE11=Lovers Turnaraound
EXTD=
EXTT0=
EXTT1=
EXTT2=
EXTT3=
EXTT4=
EXTT5=
EXTT6=
EXTT7=
EXTT8=
EXTT9=
EXTT10=
EXTT11=
PLAYORDER=
